<svg width="232" height="52" viewBox="0 0 232 52" fill="none" xmlns="http://www.w3.org/2000/svg">
<path d="M120.811 38.3708V14.0635C120.811 13.095 121.553 12.3203 122.521 12.3203C123.07 12.3203 123.554 12.5786 123.845 12.9336L135.692 27.0403V14.0635C135.692 13.095 136.434 12.3203 137.403 12.3203C137.952 12.3203 138.436 12.5786 138.726 12.9336L159.192 37.3378C159.45 37.6929 159.58 38.0479 159.58 38.4353C159.58 39.3392 158.837 40.0493 157.966 40.0493C157.449 40.0493 157.029 39.8557 156.674 39.436L138.985 18.3891V31.0108L144.343 37.3701C144.601 37.7251 144.73 38.0802 144.73 38.4676C144.73 39.3715 143.988 40.0816 143.116 40.0816C142.6 40.0816 142.18 39.8879 141.825 39.4683L124.135 18.4213V38.4353C124.135 39.3392 123.393 40.1139 122.457 40.1139C121.521 40.1139 120.843 39.3392 120.843 38.4353L120.811 38.3708Z" fill="black"/>
<path d="M159.545 29.8473C159.545 24.1013 163.967 19.582 169.778 19.582C172.619 19.582 174.975 20.6796 176.492 22.0676C176.847 22.3904 177.073 22.8101 177.073 23.262C177.073 23.6494 176.944 24.0045 176.557 24.4241L169.681 32.6557C169.358 33.0108 169.035 33.1722 168.583 33.1722C167.744 33.1722 167.099 32.5911 167.099 31.7841C167.099 31.429 167.163 31.0739 167.454 30.8157L173.49 23.6817C172.489 22.8424 171.037 22.455 169.778 22.455C165.84 22.455 162.676 25.7153 162.676 29.8473C162.676 33.9792 165.775 37.2395 169.778 37.2395C171.973 37.2395 173.716 36.2711 174.91 34.9153C175.33 34.5279 175.685 34.2051 176.234 34.2051C177.138 34.2051 177.783 34.8185 177.783 35.69C177.783 36.0129 177.59 36.4325 177.332 36.723C175.717 38.6599 173.038 40.0802 169.778 40.0802C164 40.0802 159.545 35.5609 159.545 29.815V29.8473Z" fill="black"/>
<path d="M195.602 37.0136C193.794 38.9504 191.277 40.1125 188.371 40.1125C182.69 40.1125 178.332 35.5932 178.332 29.8473C178.332 24.1013 182.658 19.582 188.371 19.582C191.277 19.582 193.794 20.7764 195.602 22.681V21.1961C195.602 20.3568 196.312 19.6466 197.152 19.6466C197.991 19.6466 198.701 20.3568 198.701 21.1961V38.4339C198.701 39.3378 198.055 40.0156 197.152 40.0156C196.248 40.0156 195.602 39.3055 195.602 38.4339V37.0136ZM195.602 30.1701V29.5567C195.441 25.5217 192.374 22.4873 188.565 22.4873C184.756 22.4873 181.463 25.7153 181.463 29.8795C181.463 34.0437 184.594 37.2718 188.565 37.2718C192.536 37.2718 195.441 34.2051 195.602 30.2023V30.1701Z" fill="black"/>
<path d="M218.233 37.015C216.425 38.9518 213.907 40.1139 211.002 40.1139C205.321 40.1139 200.963 35.5946 200.963 29.8487C200.963 24.1027 205.288 19.5834 211.002 19.5834C213.907 19.5834 216.425 20.7778 218.233 22.6824V13.8698C218.233 13.0305 218.943 12.3203 219.782 12.3203C220.622 12.3203 221.332 13.0305 221.332 13.8698V38.4676C221.332 39.3715 220.686 40.0493 219.782 40.0493C218.879 40.0493 218.233 39.3392 218.233 38.4676V37.0472V37.015ZM218.233 30.1715V29.5582C218.072 25.5231 215.005 22.4887 211.196 22.4887C207.387 22.4887 204.094 25.7168 204.094 29.881C204.094 34.0452 207.225 37.2732 211.196 37.2732C215.166 37.2732 218.072 34.2066 218.233 30.2038V30.1715Z" fill="black"/>
<path d="M14.7679 14.4884H7.85995C7.34295 14.4884 6.92395 14.0688 6.92395 13.5523C6.92395 13.0358 7.34295 12.6484 7.85995 12.6484H23.7419C24.2589 12.6484 24.6779 13.0358 24.6779 13.5846C24.6779 14.1011 24.2589 14.5207 23.7419 14.5207H16.8019V38.9894C16.8019 39.5382 16.3819 40.0224 15.8009 40.0224C15.2199 40.0224 14.7999 39.5059 14.7999 38.9894V14.4884H14.7679Z" fill="black"/>
<path d="M38.7871 35.69C37.0111 38.3693 33.9771 40.1125 30.4901 40.1125C24.8741 40.1125 20.451 35.5932 20.451 29.8473C20.451 24.1013 24.8741 19.582 30.4901 19.582C33.9771 19.582 36.9791 21.3252 38.7871 24.0045V20.6796C38.7871 20.1308 39.2061 19.7112 39.7551 19.7112C40.3041 19.7112 40.7231 20.1308 40.7231 20.6796V38.9827C40.7231 39.5314 40.3041 39.9834 39.7551 39.9834C39.2061 39.9834 38.7871 39.5314 38.7871 38.9827V35.69ZM38.7871 30.2023V29.4922C38.5931 24.9083 35.0741 21.3575 30.6201 21.3575C26.1651 21.3575 22.4201 25.0697 22.4201 29.8473C22.4201 34.6248 26.0681 38.3371 30.6201 38.3371C35.1711 38.3371 38.5931 34.8185 38.7871 30.2023Z" fill="black"/>
<path d="M44.3669 28.4592C44.3669 22.7778 48.0469 19.582 52.6629 19.582C57.2789 19.582 60.9589 22.7455 60.9589 28.4592V38.9827C60.9589 39.5314 60.5399 39.9834 59.9909 39.9834C59.4419 39.9834 59.0229 39.5314 59.0229 38.9827V28.4269C59.0229 23.7785 56.2459 21.3897 52.6629 21.3897C49.0799 21.3897 46.3039 23.7785 46.3039 28.4269V38.9827C46.3039 39.5314 45.8839 39.9834 45.3359 39.9834C44.7549 39.9834 44.3669 39.5314 44.3669 38.9827V28.4592Z" fill="black"/>
<path d="M64.609 28.4592C64.609 22.7778 68.289 19.582 72.905 19.582C77.522 19.582 81.202 22.7455 81.202 28.4592V38.9827C81.202 39.5314 80.782 39.9834 80.233 39.9834C79.684 39.9834 79.265 39.5314 79.265 38.9827V28.4269C79.265 23.7785 76.489 21.3897 72.905 21.3897C69.322 21.3897 66.546 23.7785 66.546 28.4269V38.9827C66.546 39.5314 66.127 39.9834 65.578 39.9834C64.997 39.9834 64.609 39.5314 64.609 38.9827V28.4592Z" fill="black"/>
<path d="M83.88 29.8473C83.88 24.1013 88.335 19.582 94.016 19.582C96.663 19.582 99.02 20.5504 100.763 22.1322C100.956 22.3259 101.118 22.5841 101.118 22.9069C101.118 23.1329 101.053 23.3589 100.763 23.6817L92.919 33.043C92.725 33.269 92.499 33.3981 92.208 33.3981C91.66 33.3981 91.272 33.0108 91.272 32.4943C91.272 32.3006 91.337 32.0746 91.498 31.8809L98.923 23.1329C97.535 21.9062 95.695 21.3575 94.016 21.3575C89.432 21.3575 85.817 25.0697 85.817 29.8473C85.817 34.6248 89.464 38.3371 94.016 38.3371C96.598 38.3371 98.729 37.175 100.214 35.3995C100.472 35.1736 100.73 34.9799 101.021 34.9799C101.57 34.9799 101.989 35.3672 101.989 35.916C101.989 36.1097 101.828 36.4325 101.667 36.6262C99.891 38.7244 97.212 40.1448 93.984 40.1448C88.302 40.1448 83.848 35.6255 83.848 29.8795L83.88 29.8473Z" fill="black"/>
<path d="M105.477 27.2393C105.477 22.7846 108.156 19.6211 112.707 19.6211C113.224 19.6211 113.611 20.0085 113.611 20.525C113.611 20.9769 113.192 21.4288 112.707 21.4288C109.544 21.4288 107.413 23.527 107.413 27.2716V39.054C107.413 39.6028 106.994 40.0547 106.445 40.0547C105.864 40.0547 105.477 39.6028 105.477 39.054V27.2716V27.2393Z" fill="black"/>
</svg>
